PathFileType	4	(X/Y/Z)	s07c0402.trc
DataRate	CameraRate	NumFrames	NumMarkers	Units	OrigDataRate	OrigDataStartFrame	OrigNumFrames
200	200	4	48	mm	200	500	2000
Frame#	Time	racr			lacr			c7			jug			rlel			rdr			llel			ldr			s2			lic			ric			lasi			rasi			rpsi			lpsi			rgt			lgt			rth1			rth2			rth3			rth4			rlfc			rmfc			rsh1			rsh2			rsh3			rsh4			rlmal			rcal			rtoe			rmt5			lth1			lth2			lth4			lth3			llfc			lmfc			lsh1			lsh2			lsh3			lsh4			llmal			lcal			ltoe			lmt5			SBIKE			LBIKE			RBIKE			
		X1	Y1	Z1	X2	Y2	Z2	X3	Y3	Z3	X4	Y4	Z4	X5	Y5	Z5	X6	Y6	Z6	X7	Y7	Z7	X8	Y8	Z8	X9	Y9	Z9	X10	Y10	Z10	X11	Y11	Z11	X12	Y12	Z12	X13	Y13	Z13	X14	Y14	Z14	X15	Y15	Z15	X16	Y16	Z16	X17	Y17	Z17	X18	Y18	Z18	X19	Y19	Z19	X20	Y20	Z20	X21	Y21	Z21	X22	Y22	Z22	X23	Y23	Z23	X24	Y24	Z24	X25	Y25	Z25	X26	Y26	Z26	X27	Y27	Z27	X28	Y28	Z28	X29	Y29	Z29	X30	Y30	Z30	X31	Y31	Z31	X32	Y32	Z32	X33	Y33	Z33	X34	Y34	Z34	X35	Y35	Z35	X36	Y36	Z36	X37	Y37	Z37	X38	Y38	Z38	X39	Y39	Z39	X40	Y40	Z40	X41	Y41	Z41	X42	Y42	Z42	X43	Y43	Z43	X44	Y44	Z44	X45	Y45	Z45	X46	Y46	Z46	X47	Y47	Z47	X48	Y48	Z48	
500	2.5000	691.905171	1411.542374	-28.012907	696.096594	1431.981428	-335.505065	667.521085	1476.604228	-175.348037	641.385256	1327.725808	-191.219070	490.303718	1116.837047	64.215038	689.471573	942.078406	-60.221285	534.886666	1171.117197	-522.626726	690.353353	935.634904	-442.821382	102.466537	1246.915972	-255.313291	277.925019	1277.269886	-385.735605	266.071978	1258.430157	-94.057350	291.950259	1195.221034	-362.498156	281.077751	1208.181040	-113.640235	132.284380	1281.740575	-202.814929	150.830486	1289.435361	-309.967857	194.736662	1143.004433	-58.704635	201.033923	1125.932190	-421.404202	288.436743	1008.916801	-52.448752	345.547541	942.529396	-62.285691	364.742069	859.081073	-63.274283	375.969124	959.125782	-76.681535	416.617854	731.494111	-95.379990	403.143438	717.969795	-197.458465	351.279265	603.206529	-68.983918	331.816810	517.612778	-88.527140	276.823060	450.934215	-83.192624	345.856731	515.005814	-126.227804	210.266530	325.511638	-82.891209	141.145999	280.154531	-110.484421	431.392749	282.435471	-127.056051	357.696458	242.555733	-56.474200	261.746713	1020.242253	-424.412254	329.424554	964.095350	-420.544125	357.389978	983.867995	-409.661081	360.220378	880.760365	-419.145877	425.454027	718.099654	-393.695853	407.113767	704.452871	-293.239102	291.169387	648.307349	-410.572263	224.689090	597.040695	-390.882122	135.556050	581.885308	-398.512202	232.142569	599.249621	-348.665287	10.609915	532.564958	-399.295490	-68.671393	548.828734	-362.817623	132.782462	341.186120	-362.078198	55.725687	376.415014	-423.666087	-262.544129	969.707906	-237.670048	-83.392842	79.223853	-437.772191	-83.444407	78.812985	-40.265750	
501	2.5050	692.963463	1412.222330	-29.325896	695.281866	1433.848325	-336.739926	667.165469	1477.659846	-176.729014	642.272220	1328.208362	-192.119351	491.518958	1117.776158	64.059106	689.141423	941.477590	-60.719288	535.060194	1171.533139	-522.560911	690.446752	935.714218	-442.775869	103.115347	1243.850808	-254.799632	278.279329	1275.635421	-385.376704	267.709190	1255.255333	-93.706024	292.852290	1193.557690	-362.280353	282.155615	1204.785223	-113.171691	133.006368	1278.583541	-202.077020	151.193153	1286.650911	-309.276220	195.496384	1139.215034	-58.640841	202.548235	1124.115632	-421.577598	287.135262	1003.530540	-52.634490	343.020373	936.153676	-62.674187	360.608655	852.308935	-63.978960	373.835449	952.163582	-77.032801	411.185779	724.485775	-95.968064	397.130704	711.268044	-197.857291	346.296298	596.045996	-69.332110	327.237427	510.339915	-88.838238	272.639305	443.448707	-83.336135	341.224229	506.966937	-127.546133	206.448690	317.843947	-82.601614	137.044932	272.798070	-109.325836	427.880702	274.562153	-127.101463	354.181452	234.699628	-56.562085	264.680418	1019.239667	-425.053938	333.285819	964.238558	-421.638454	361.047298	984.528408	-411.066580	365.677779	881.399590	-419.845854	432.675846	719.921218	-394.508891	413.649596	705.569931	-295.176276	297.941864	651.675923	-411.603197	230.860280	601.322804	-391.746507	141.519332	587.366279	-399.211118	238.253402	603.683550	-349.314013	16.047523	539.749560	-399.767275	-62.697841	557.323856	-363.505293	136.606202	348.000023	-362.455868	59.606272	383.440965	-424.048666	-262.517817	969.699516	-237.703323	-83.362714	79.212490	-437.784655	-83.460567	78.830253	-40.268536	
502	2.5100	693.835777	1413.158208	-30.693580	694.446937	1435.828534	-338.056948	666.732219	1478.738882	-178.148458	643.188639	1328.784562	-193.432036	492.998759	1118.709159	63.829445	688.771469	940.834769	-61.425629	535.251669	1171.962029	-522.555271	690.533288	935.686528	-442.932238	103.901506	1240.793642	-254.401410	278.645637	1274.074305	-384.861090	269.446790	1252.295304	-93.444860	293.731932	1191.999703	-362.195386	283.277199	1201.562963	-112.705780	133.716373	1275.583583	-201.305560	151.500685	1283.949559	-308.453761	196.198549	1135.430311	-58.512353	204.072814	1122.371993	-421.880835	285.899639	998.326534	-52.825914	340.497743	930.068620	-62.811645	356.231164	845.887292	-64.692711	371.629553	945.435099	-77.224428	405.614642	717.495921	-96.648750	392.513363	704.352895	-197.563683	341.236050	589.101683	-69.707351	322.518175	503.255807	-89.170291	268.266916	436.079439	-83.467662	336.299406	500.658028	-127.203062	202.511955	309.815849	-82.676910	133.134041	265.117275	-109.119709	423.973338	266.698450	-127.128314	350.230465	226.967122	-56.564314	267.562193	1018.450682	-425.825706	337.143956	964.570172	-422.843282	364.637652	985.381897	-412.597882	370.857287	882.340156	-421.245147	440.005008	722.160691	-395.272999	422.550836	708.548370	-295.750331	304.975041	655.152705	-412.531423	237.226991	605.706326	-392.455191	147.705290	592.921195	-399.876499	244.540691	608.166190	-349.949915	21.868933	547.107249	-400.319217	-56.814901	565.619863	-364.060836	140.561717	354.415081	-362.630575	63.838999	390.410862	-424.330087	-262.484890	969.685242	-237.696408	-83.348859	79.206863	-437.789569	-83.430267	78.805155	-40.271349	
503	2.5150	694.613093	1414.257732	-32.102813	693.599991	1437.940954	-339.604535	666.281524	1480.153881	-179.796721	645.168938	1329.652674	-195.861081	494.655920	1119.770662	63.644749	688.367749	940.150730	-62.188677	535.578052	1172.314951	-522.541372	690.567235	935.572341	-443.199190	104.639265	1238.007175	-253.959645	279.017958	1272.442820	-384.643335	271.154355	1249.400946	-93.147405	294.574458	1190.602347	-362.087487	284.458118	1198.624278	-112.263753	134.495748	1272.710053	-200.562068	151.428645	1281.621632	-307.873714	196.932810	1131.892397	-58.409955	205.554043	1120.791102	-422.071528	284.585636	993.407315	-53.011554	337.902503	924.040504	-63.101778	351.943742	839.663399	-65.254544	369.330897	938.923557	-77.383401	399.834950	710.950552	-97.290179	384.868074	697.673425	-198.760006	335.944232	582.247280	-70.015162	317.506221	496.428168	-89.505466	263.680401	429.002943	-83.658311	331.205632	493.947326	-127.295264	198.289834	302.557488	-82.542811	128.830369	258.016212	-108.847575	420.150774	260.287694	-126.822696	345.915548	219.527461	-56.571340	270.294212	1017.823798	-426.750625	340.897247	965.207093	-424.217666	368.083738	986.507494	-414.158263	376.019093	883.464902	-422.683371	447.710381	724.880526	-396.949145	430.505996	711.366614	-296.955457	312.143421	658.885503	-413.450022	243.879503	610.072634	-393.048499	154.235027	598.390151	-400.501539	250.989779	612.697994	-350.564596	27.979883	554.217979	-400.738254	-50.665373	573.758862	-364.600609	144.867073	360.695466	-362.823469	68.003451	397.528445	-424.324124	-262.464135	969.678657	-237.659217	-83.345601	79.192038	-437.797352	-83.434647	78.794203	-40.261080	
